M48
; DRILL file KiCad 10.0.1 date 2026-04-24T21:52:00
; FORMAT={-:-/ absolute / metric / decimal}
; #@! TF.CreationDate,2026-04-24T21:52:00+02:00
; #@! TF.GenerationSoftware,Kicad,Pcbnew,10.0.1
; #@! TF.FileFunction,Plated,1,4,PTH
FMAT,2
METRIC
; #@! TA.AperFunction,Plated,PTH,ViaDrill
T1C0.300
; #@! TA.AperFunction,Plated,PTH,ComponentDrill
T2C0.650
; #@! TA.AperFunction,Plated,PTH,ComponentDrill
T3C0.800
; #@! TA.AperFunction,Plated,PTH,ComponentDrill
T4C0.900
; #@! TA.AperFunction,Plated,PTH,ComponentDrill
T5C1.000
; #@! TA.AperFunction,Plated,PTH,ComponentDrill
T6C1.092
; #@! TA.AperFunction,Plated,PTH,ComponentDrill
T7C1.100
; #@! TA.AperFunction,Plated,PTH,ComponentDrill
T8C1.143
; #@! TA.AperFunction,Plated,PTH,ComponentDrill
T9C1.150
; #@! TA.AperFunction,Plated,PTH,ComponentDrill
T10C1.200
; #@! TA.AperFunction,Plated,PTH,ComponentDrill
T11C1.400
; #@! TA.AperFunction,Plated,PTH,ComponentDrill
T12C1.651
%
G90
G05
T1
X66.0Y-86.0
X85.0Y-54.0
X86.5Y-56.0
X105.0Y-53.0
X113.0Y-72.0
X113.5Y-52.5
X113.5Y-83.5
X114.732Y-38.768
X116.5Y-58.0
X118.5Y-43.5
X118.5Y-82.5
X119.5Y-58.0
X120.0Y-42.0
X120.0Y-44.5
X122.5Y-64.5
X123.5Y-52.0
X123.5Y-92.5
X124.0Y-37.0
X124.0Y-86.0
X125.5Y-69.5
X126.5Y-47.5
X127.5Y-52.0
X129.5Y-40.5
X129.5Y-48.5
X129.5Y-60.0
X129.5Y-85.5
X131.5Y-68.5
X131.5Y-69.5
X133.0Y-87.0
X133.0Y-89.5
X133.5Y-44.0
X134.0Y-84.0
X134.0Y-87.5
X143.0Y-23.5
X145.5Y-45.0
X151.0Y-44.0
X174.5Y-22.5
X174.5Y-24.5
X174.5Y-26.5
X174.5Y-28.5
X174.5Y-30.5
X174.5Y-32.5
X174.5Y-34.5
X174.5Y-36.5
X174.5Y-38.5
X174.5Y-40.5
X176.0Y-83.5
X176.0Y-85.5
X176.0Y-87.5
X176.0Y-89.5
X176.0Y-91.5
X176.0Y-93.5
X176.0Y-95.5
X176.0Y-97.5
X176.0Y-99.5
X176.0Y-101.5
X176.5Y-22.5
X176.5Y-24.5
X176.5Y-26.5
X176.5Y-28.5
X176.5Y-30.5
X176.5Y-32.5
X176.5Y-34.5
X176.5Y-36.5
X176.5Y-38.5
X176.5Y-40.5
X178.0Y-83.5
X178.0Y-85.5
X178.0Y-87.5
X178.0Y-89.5
X178.0Y-91.5
X178.0Y-93.5
X178.0Y-95.5
X178.0Y-97.5
X178.0Y-99.5
X178.0Y-101.5
X178.5Y-22.5
X178.5Y-24.5
X178.5Y-26.5
X178.5Y-28.5
X178.5Y-30.5
X178.5Y-32.5
X178.5Y-34.5
X178.5Y-36.5
X178.5Y-38.5
X178.5Y-40.5
X180.0Y-83.5
X180.0Y-85.5
X180.0Y-87.5
X180.0Y-89.5
X180.0Y-91.5
X180.0Y-93.5
X180.0Y-95.5
X180.0Y-97.5
X180.0Y-99.5
X180.0Y-101.5
X180.5Y-22.5
X180.5Y-24.5
X180.5Y-26.5
X180.5Y-28.5
X180.5Y-30.5
X180.5Y-32.5
X180.5Y-34.5
X180.5Y-36.5
X180.5Y-38.5
X180.5Y-40.5
X182.0Y-83.5
X182.0Y-85.5
X182.0Y-87.5
X182.0Y-89.5
X182.0Y-91.5
X182.0Y-93.5
X182.0Y-95.5
X182.0Y-97.5
X182.0Y-99.5
X182.0Y-101.5
X182.5Y-22.5
X182.5Y-24.5
X182.5Y-26.5
X182.5Y-28.5
X182.5Y-30.5
X182.5Y-32.5
X182.5Y-34.5
X182.5Y-36.5
X182.5Y-38.5
X182.5Y-40.5
X184.0Y-83.5
X184.0Y-85.5
X184.0Y-87.5
X184.0Y-89.5
X184.0Y-91.5
X184.0Y-93.5
X184.0Y-95.5
X184.0Y-97.5
X184.0Y-99.5
X184.0Y-101.5
X184.5Y-28.5
X184.5Y-30.5
X184.5Y-32.5
X184.5Y-34.5
X186.0Y-89.5
X186.0Y-91.5
X186.0Y-93.5
X186.0Y-101.5
X186.5Y-28.5
X186.5Y-30.5
X186.5Y-32.5
X188.0Y-89.5
X188.0Y-91.5
X188.0Y-93.5
X188.0Y-101.5
X188.5Y-28.5
X188.5Y-30.5
X188.5Y-32.5
X188.5Y-34.5
X190.0Y-87.5
X190.0Y-89.5
X190.0Y-91.5
X190.0Y-93.5
X190.0Y-95.5
X190.0Y-101.5
X190.5Y-22.5
X190.5Y-24.5
X190.5Y-26.5
X190.5Y-28.5
X190.5Y-30.5
X190.5Y-32.5
X190.5Y-34.5
X190.5Y-36.5
X190.5Y-38.5
X190.5Y-40.5
X192.0Y-83.5
X192.0Y-85.5
X192.0Y-87.5
X192.0Y-89.5
X192.0Y-91.5
X192.0Y-93.5
X192.0Y-95.5
X192.0Y-97.5
X192.0Y-99.5
X192.0Y-101.5
X192.5Y-22.5
X192.5Y-24.5
X192.5Y-26.5
X192.5Y-28.5
X192.5Y-30.5
X192.5Y-32.5
X192.5Y-34.5
X192.5Y-36.5
X192.5Y-38.5
X192.5Y-40.5
X194.0Y-83.5
X194.0Y-85.5
X194.0Y-87.5
X194.0Y-89.5
X194.0Y-91.5
X194.0Y-93.5
X194.0Y-95.5
X194.0Y-97.5
X194.0Y-99.5
X194.0Y-101.5
X194.5Y-22.5
X194.5Y-24.5
X194.5Y-26.5
X194.5Y-28.5
X194.5Y-30.5
X194.5Y-32.5
X194.5Y-34.5
X194.5Y-36.5
X194.5Y-38.5
X194.5Y-40.5
X196.0Y-83.5
X196.0Y-85.5
X196.0Y-87.5
X196.0Y-89.5
X196.0Y-91.5
X196.0Y-93.5
X196.0Y-95.5
X196.0Y-97.5
X196.0Y-99.5
X196.0Y-101.5
X196.5Y-22.5
X196.5Y-24.5
X196.5Y-26.5
X196.5Y-28.5
X196.5Y-30.5
X196.5Y-32.5
X196.5Y-34.5
X196.5Y-36.5
X196.5Y-38.5
X196.5Y-40.5
X198.0Y-83.5
X198.0Y-85.5
X198.0Y-87.5
X198.0Y-89.5
X198.0Y-91.5
X198.0Y-93.5
X198.0Y-95.5
X198.0Y-97.5
X198.0Y-99.5
X198.0Y-101.5
X198.5Y-22.5
X198.5Y-24.5
X198.5Y-26.5
X198.5Y-28.5
X198.5Y-30.5
X198.5Y-32.5
X198.5Y-34.5
X198.5Y-36.5
X198.5Y-38.5
X198.5Y-40.5
X200.0Y-83.5
X200.0Y-85.5
X200.0Y-87.5
X200.0Y-89.5
X200.0Y-91.5
X200.0Y-93.5
X200.0Y-95.5
X200.0Y-97.5
X200.0Y-99.5
X200.0Y-101.5
X200.5Y-22.5
X200.5Y-24.5
X200.5Y-26.5
X200.5Y-28.5
X200.5Y-30.5
X200.5Y-32.5
X200.5Y-34.5
X200.5Y-36.5
X200.5Y-38.5
X200.5Y-40.5
X202.0Y-83.5
X202.0Y-85.5
X202.0Y-87.5
X202.0Y-89.5
X202.0Y-91.5
X202.0Y-93.5
X202.0Y-95.5
X202.0Y-97.5
X202.0Y-99.5
X202.0Y-101.5
X202.5Y-22.5
X202.5Y-24.5
X202.5Y-26.5
X202.5Y-28.5
X202.5Y-30.5
X202.5Y-32.5
X202.5Y-34.5
X202.5Y-36.5
X202.5Y-38.5
X202.5Y-40.5
X204.0Y-83.5
X204.0Y-85.5
X204.0Y-87.5
X204.0Y-89.5
X204.0Y-91.5
X204.0Y-93.5
X204.0Y-95.5
X204.0Y-97.5
X204.0Y-99.5
X204.0Y-101.5
X204.5Y-22.5
X204.5Y-24.5
X204.5Y-26.5
X204.5Y-28.5
X204.5Y-30.5
X204.5Y-32.5
X204.5Y-34.5
X204.5Y-36.5
X204.5Y-38.5
X204.5Y-40.5
X206.0Y-83.5
X206.0Y-85.5
X206.0Y-87.5
X206.0Y-89.5
X206.0Y-91.5
X206.0Y-93.5
X206.0Y-95.5
X206.0Y-97.5
X206.0Y-99.5
X206.0Y-101.5
X206.5Y-22.5
X206.5Y-24.5
X206.5Y-26.5
X206.5Y-28.5
X206.5Y-30.5
X206.5Y-32.5
X206.5Y-34.5
X206.5Y-36.5
X206.5Y-38.5
X206.5Y-40.5
X208.0Y-83.5
X208.0Y-85.5
X208.0Y-87.5
X208.0Y-89.5
X208.0Y-91.5
X208.0Y-93.5
X208.0Y-95.5
X208.0Y-97.5
X208.0Y-99.5
X208.0Y-101.5
X208.5Y-22.5
X208.5Y-24.5
X208.5Y-26.5
X208.5Y-28.5
X208.5Y-30.5
X208.5Y-32.5
X208.5Y-34.5
X208.5Y-36.5
X208.5Y-38.5
X208.5Y-40.5
X210.0Y-83.5
X210.0Y-85.5
X210.0Y-87.5
X210.0Y-89.5
X210.0Y-91.5
X210.0Y-93.5
X210.0Y-95.5
X210.0Y-97.5
X210.0Y-99.5
X210.0Y-101.5
X210.5Y-22.5
X210.5Y-24.5
X210.5Y-26.5
X210.5Y-28.5
X210.5Y-30.5
X210.5Y-32.5
X210.5Y-34.5
X210.5Y-36.5
X210.5Y-38.5
X210.5Y-40.5
X212.0Y-83.5
X212.0Y-85.5
X212.0Y-87.5
X212.0Y-89.5
X212.0Y-91.5
X212.0Y-93.5
X212.0Y-95.5
X212.0Y-97.5
X212.0Y-99.5
X212.0Y-101.5
X212.5Y-22.5
X212.5Y-24.5
X212.5Y-26.5
X212.5Y-28.5
X212.5Y-30.5
X212.5Y-32.5
X212.5Y-34.5
X212.5Y-36.5
X212.5Y-38.5
X212.5Y-40.5
X214.0Y-83.5
X214.0Y-85.5
X214.0Y-87.5
X214.0Y-89.5
X214.0Y-91.5
X214.0Y-93.5
X214.0Y-95.5
X214.0Y-97.5
X214.0Y-99.5
X214.0Y-101.5
X214.5Y-28.5
X214.5Y-30.5
X214.5Y-32.5
X214.5Y-34.5
X216.0Y-89.5
X216.0Y-91.5
X216.0Y-93.5
X216.0Y-101.5
X216.5Y-28.5
X216.5Y-30.5
X216.5Y-32.5
X218.0Y-89.5
X218.0Y-91.5
X218.0Y-93.5
X218.0Y-101.5
X218.5Y-28.5
X218.5Y-30.5
X218.5Y-32.5
X218.5Y-34.5
X220.0Y-87.5
X220.0Y-89.5
X220.0Y-91.5
X220.0Y-93.5
X220.0Y-95.5
X220.0Y-101.5
X220.5Y-22.5
X220.5Y-24.5
X220.5Y-26.5
X220.5Y-28.5
X220.5Y-30.5
X220.5Y-32.5
X220.5Y-34.5
X220.5Y-36.5
X220.5Y-38.5
X220.5Y-40.5
X222.0Y-83.5
X222.0Y-85.5
X222.0Y-87.5
X222.0Y-89.5
X222.0Y-91.5
X222.0Y-93.5
X222.0Y-95.5
X222.0Y-97.5
X222.0Y-99.5
X222.0Y-101.5
X222.5Y-22.5
X222.5Y-24.5
X222.5Y-26.5
X222.5Y-28.5
X222.5Y-30.5
X222.5Y-32.5
X222.5Y-34.5
X222.5Y-36.5
X222.5Y-38.5
X222.5Y-40.5
X224.0Y-83.5
X224.0Y-85.5
X224.0Y-87.5
X224.0Y-89.5
X224.0Y-91.5
X224.0Y-93.5
X224.0Y-95.5
X224.0Y-97.5
X224.0Y-99.5
X224.0Y-101.5
X224.5Y-22.5
X224.5Y-24.5
X224.5Y-26.5
X224.5Y-28.5
X224.5Y-30.5
X224.5Y-32.5
X224.5Y-34.5
X224.5Y-36.5
X224.5Y-38.5
X224.5Y-40.5
X226.0Y-83.5
X226.0Y-85.5
X226.0Y-87.5
X226.0Y-89.5
X226.0Y-91.5
X226.0Y-93.5
X226.0Y-95.5
X226.0Y-97.5
X226.0Y-99.5
X226.0Y-101.5
X226.5Y-22.5
X226.5Y-24.5
X226.5Y-26.5
X226.5Y-28.5
X226.5Y-30.5
X226.5Y-32.5
X226.5Y-34.5
X226.5Y-36.5
X226.5Y-38.5
X226.5Y-40.5
X228.0Y-83.5
X228.0Y-85.5
X228.0Y-87.5
X228.0Y-89.5
X228.0Y-91.5
X228.0Y-93.5
X228.0Y-95.5
X228.0Y-97.5
X228.0Y-99.5
X228.0Y-101.5
X228.5Y-22.5
X228.5Y-24.5
X228.5Y-26.5
X228.5Y-28.5
X228.5Y-30.5
X228.5Y-32.5
X228.5Y-34.5
X228.5Y-36.5
X228.5Y-38.5
X228.5Y-40.5
X230.0Y-83.5
X230.0Y-85.5
X230.0Y-87.5
X230.0Y-89.5
X230.0Y-91.5
X230.0Y-93.5
X230.0Y-95.5
X230.0Y-97.5
X230.0Y-99.5
X230.0Y-101.5
X230.5Y-22.5
X230.5Y-24.5
X230.5Y-26.5
X230.5Y-28.5
X230.5Y-30.5
X230.5Y-32.5
X230.5Y-34.5
X230.5Y-36.5
X230.5Y-38.5
X230.5Y-40.5
X232.0Y-83.5
X232.0Y-85.5
X232.0Y-87.5
X232.0Y-89.5
X232.0Y-91.5
X232.0Y-93.5
X232.0Y-95.5
X232.0Y-97.5
X232.0Y-99.5
X232.0Y-101.5
X232.5Y-22.5
X232.5Y-24.5
X232.5Y-26.5
X232.5Y-28.5
X232.5Y-30.5
X232.5Y-32.5
X232.5Y-34.5
X232.5Y-36.5
X232.5Y-38.5
X232.5Y-40.5
X234.0Y-83.5
X234.0Y-85.5
X234.0Y-87.5
X234.0Y-89.5
X234.0Y-91.5
X234.0Y-93.5
X234.0Y-95.5
X234.0Y-97.5
X234.0Y-99.5
X234.0Y-101.5
T2
X138.15Y-25.0
X139.42Y-25.0
X140.69Y-25.0
X141.96Y-25.0
X143.23Y-25.0
X144.5Y-25.0
X145.77Y-25.0
X147.04Y-25.0
X148.31Y-25.0
X149.58Y-25.0
T3
X68.5Y-46.0
X68.5Y-56.0
X79.0Y-54.0
X79.347Y-63.0
X82.5Y-54.0
X82.847Y-63.0
X115.75Y-31.0
X117.5Y-79.15
X117.5Y-91.85
X117.75Y-22.0
X122.5Y-66.65
X122.5Y-79.35
X126.0Y-63.0
X127.847Y-72.0
X128.25Y-31.0
X129.5Y-63.0
X130.25Y-22.0
X131.347Y-72.0
X134.75Y-93.0
X137.0Y-29.75
X137.0Y-42.25
X139.25Y-16.0
X139.25Y-20.5
X147.25Y-93.0
X151.75Y-16.0
X151.75Y-20.5
T4
X61.96Y-66.5
X64.5Y-66.5
X117.42Y-35.0
X127.58Y-35.0
T5
X63.0Y-47.5
X63.0Y-58.9
T6
X81.0Y-23.106
X81.0Y-45.606
X143.506Y-51.894
X143.506Y-74.394
X152.177Y-51.894
X152.177Y-74.394
X160.848Y-51.894
X160.848Y-74.394
X169.518Y-51.894
X169.518Y-74.394
X178.189Y-51.894
X178.189Y-74.394
X186.86Y-51.894
X186.86Y-74.394
X195.531Y-51.894
X195.531Y-74.394
X204.202Y-51.894
X204.202Y-74.394
X212.872Y-51.894
X212.872Y-74.394
X221.543Y-51.894
X221.543Y-74.394
X230.0Y-52.106
X230.0Y-74.606
T7
X117.5Y-39.92
X117.5Y-50.08
X117.5Y-64.92
X117.5Y-75.08
X118.92Y-26.5
X129.08Y-26.5
X136.0Y-51.92
X136.0Y-62.08
X136.0Y-65.42
X136.0Y-75.58
X137.92Y-46.5
X144.5Y-31.92
X144.5Y-42.08
X148.08Y-46.5
X149.92Y-92.5
X160.08Y-92.5
T8
X136.299Y-81.0
X136.299Y-88.0
X154.0Y-24.799
X154.0Y-46.201
X157.701Y-81.0
X157.701Y-88.0
X161.5Y-24.299
X161.5Y-45.701
T9
X74.0Y-24.42
X74.0Y-26.96
X74.0Y-29.5
X74.0Y-35.46
X74.0Y-38.0
X74.0Y-40.54
X74.0Y-46.46
X74.0Y-49.0
X74.0Y-51.54
X74.0Y-57.5
X74.0Y-60.04
X74.0Y-62.58
T10
X61.15Y-72.5
X73.85Y-72.5
X117.15Y-55.5
X129.85Y-55.5
T11
X64.5Y-23.46
X64.5Y-28.54
X64.5Y-34.42
X64.5Y-39.5
T12
X112.5Y-44.58
X112.5Y-50.04
X112.5Y-55.5
X112.687Y-26.651
X112.687Y-32.111
X112.687Y-37.571
X112.687Y-63.151
X112.687Y-68.611
X112.687Y-74.071
X112.687Y-81.651
X112.687Y-87.111
X112.687Y-92.571
M30
